# xmcd
#
# Track frame offsets: 
#        150
#        15048
#        28668
#        41046
#        56337
#        70122
#        83653
#        94229
#        109233
#        121367
#        135647
#        148167
#        160707
#        173919
#        187877
#        202212
#        216884
#        231599
#        248676
#        275776
#        292151
#        305714
#        314331
#
# Disc length: 4374 seconds
#
# Revision: 2
# Processed by: cddbd v1.5.2PL0 Copyright (c) Steve Scherf et al.
# Submitted via: ExactAudioCopy v0.95b3
#
DISCID=58111417
DTITLE=Mahalia Jackson - In the Upper Room
DYEAR=2004
DGENRE=Blues
TTITLE0=I'm Going to Tell God
TTITLE1=What Could I do
TTITLE2=Move on Up a Little Higher, Pt1
TTITLE3=Move on Up a Little Higher, Pt2
TTITLE4=Even Me
TTITLE5=Dig a Little Deeper
TTITLE6=Amazing Grace
TTITLE7=I Can Put My Trust in Jesus
TTITLE8=Get Away Jordan
TTITLE9=Prayer Changes Things
TTITLE10=Just Over the Hill, Pt1
TTITLE11=Just Over the Hill, Pt2
TTITLE12=These Are They
TTITLE13=Silent Night, Holy Night
TTITLE14=The Lord's Prayer
TTITLE15=How I Got Over
TTITLE16=Just as I Am
TTITLE17=His Eye is on the Sparrow
TTITLE18=In the Upper Room, Pts 1&2
TTITLE19=Consider Me
TTITLE20=What Then?
TTITLE21=No Matter How You Pray
TTITLE22=Walking to Jerusalem
EXTD=
EXTT0=
EXTT1=
EXTT2=
EXTT3=
EXTT4=
EXTT5=
EXTT6=
EXTT7=
EXTT8=
EXTT9=
EXTT10=
EXTT11=
EXTT12=
EXTT13=
EXTT14=
EXTT15=
EXTT16=
EXTT17=
EXTT18=
EXTT19=
EXTT20=
EXTT21=
EXTT22=
PLAYORDER=
